<svg width="352" height="231" viewBox="0 0 352 231" fill="none" xmlns="http://www.w3.org/2000/svg">
<path d="M0 117.965C0 62.6106 0 34.9334 15.9139 17.6951C18.5725 14.8154 21.5067 12.2031 24.6747 9.89558C43.6384 -3.91712 71.1298 -0.714999 126.113 5.68924L258.905 21.1565C296.783 25.5684 315.722 27.7744 329.017 38.1967C334.652 42.6139 339.45 48.004 343.186 54.1119C352 68.5236 352 87.5907 352 125.725C352 168.121 352 189.319 341.768 204.514C337.448 210.929 331.929 216.448 325.514 220.768C310.319 231 289.121 231 246.725 231H113.035C63.2079 231 38.2944 231 21.6126 217.113C18.8078 214.778 16.2219 212.192 13.887 209.387C0 192.706 0 167.792 0 117.965Z" fill="black" fill-opacity="0.25"/>
</svg>
